<?xml version="1.0" standalone="no"?>
<!DOCTYPE svg PUBLIC "-//W3C//DTD SVG 20010904//EN"
 "http://www.w3.org/TR/2001/REC-SVG-20010904/DTD/svg10.dtd">
<svg version="1.0" xmlns="http://www.w3.org/2000/svg"
 width="900.000000pt" height="900.000000pt" viewBox="0 0 900.000000 900.000000"
 preserveAspectRatio="xMidYMid meet">
<metadata>
Created by potrace 1.11, written by Peter Selinger 2001-2013
</metadata>
<g transform="translate(0.000000,900.000000) scale(0.100000,-0.100000)"
fill="#000000" stroke="none">
<path d="M4310 8997 c-3 -3 -45 -8 -95 -11 -154 -9 -268 -21 -328 -32 -10 -2
-51 -8 -90 -14 -120 -17 -141 -21 -157 -27 -8 -3 -28 -7 -45 -9 -31 -4 -114
-23 -220 -50 -107 -27 -377 -113 -445 -141 -8 -3 -19 -7 -25 -9 -73 -18 -538
-237 -607 -285 -14 -11 -29 -19 -32 -19 -4 0 -49 -27 -102 -60 -52 -33 -99
-60 -104 -60 -4 0 -10 -4 -12 -8 -1 -5 -37 -30 -78 -57 -41 -27 -77 -51 -80
-55 -3 -3 -30 -23 -60 -45 -30 -22 -60 -44 -66 -50 -6 -5 -23 -19 -38 -30 -16
-11 -33 -25 -40 -30 -6 -6 -24 -21 -41 -34 -77 -59 -173 -148 -325 -301 -162
-162 -200 -203 -270 -290 -19 -24 -40 -48 -45 -54 -58 -60 -319 -435 -364
-524 -8 -15 -17 -29 -21 -32 -4 -3 -13 -18 -22 -35 -8 -16 -28 -55 -45 -85
-56 -102 -111 -215 -154 -310 -53 -120 -100 -232 -103 -245 -2 -5 -6 -17 -9
-25 -19 -47 -69 -201 -100 -305 -35 -116 -40 -136 -53 -200 -3 -16 -8 -37 -11
-45 -8 -20 -8 -18 -18 -75 -4 -27 -10 -54 -11 -60 -6 -22 -13 -54 -18 -91 -4
-22 -11 -65 -17 -97 -6 -33 -12 -73 -14 -90 -2 -18 -6 -54 -9 -82 -39 -318
-39 -833 0 -1060 3 -16 7 -41 8 -55 3 -23 18 -129 21 -140 1 -3 5 -30 10 -60
5 -30 9 -57 10 -60 1 -3 7 -32 14 -65 6 -33 19 -89 28 -125 8 -36 16 -69 17
-75 12 -52 83 -292 96 -320 5 -11 23 -58 39 -105 65 -187 101 -270 219 -500
47 -91 90 -175 96 -187 6 -13 14 -23 19 -23 4 0 7 -5 7 -10 0 -10 127 -219
140 -230 3 -3 18 -25 34 -50 28 -43 153 -214 187 -255 10 -11 55 -65 100 -120
90 -108 356 -379 454 -462 114 -97 161 -135 250 -202 22 -17 45 -34 50 -39 31
-24 122 -88 136 -97 10 -5 73 -45 141 -89 266 -170 629 -347 883 -430 28 -9
57 -19 65 -23 8 -3 17 -7 20 -8 3 -1 44 -14 92 -29 48 -15 95 -29 105 -32 10
-2 61 -15 113 -29 102 -27 260 -61 325 -70 22 -3 63 -10 91 -16 28 -5 69 -12
90 -14 22 -2 59 -6 84 -9 229 -29 555 -38 785 -22 165 11 308 24 335 31 3 0
30 5 60 9 30 4 64 10 75 12 11 2 38 6 60 9 22 3 49 8 60 12 11 3 27 7 35 8 8
1 31 5 50 9 19 4 43 8 52 10 10 1 21 5 24 9 4 4 16 7 26 7 26 0 282 72 409
115 127 44 127 44 137 46 4 1 24 10 44 20 21 10 42 19 47 19 5 0 48 18 95 40
47 22 109 49 138 62 29 12 55 25 58 29 3 3 16 10 30 14 14 4 30 11 36 16 6 5
42 25 80 45 88 46 132 71 169 94 17 11 43 27 60 36 116 66 446 303 555 400 8
7 42 37 75 66 109 95 368 361 466 478 177 213 354 466 476 685 57 101 183 356
183 370 0 8 5 15 12 15 6 0 8 3 5 7 -4 3 -1 16 6 27 7 12 32 68 54 126 41 104
55 140 58 150 1 3 4 12 8 20 14 37 31 96 29 103 -1 4 2 7 6 7 5 0 9 6 9 13 0
6 9 45 21 85 51 170 89 321 98 386 2 15 6 37 9 47 7 21 15 67 19 109 3 29 17
116 23 145 38 194 50 824 19 1020 -3 17 -7 59 -10 95 -3 36 -10 90 -15 120 -6
30 -13 75 -16 100 -4 25 -8 54 -10 65 -7 43 -36 182 -44 215 -5 19 -19 73 -31
120 -25 95 -93 316 -114 370 -8 19 -27 69 -42 110 -48 131 -216 496 -250 540
-6 8 -28 46 -48 84 -62 112 -283 446 -320 481 -6 6 -24 28 -41 50 -47 64 -155
193 -205 246 -175 186 -361 363 -460 439 -25 19 -47 37 -50 40 -3 3 -25 21
-50 40 -25 19 -47 37 -50 40 -9 10 -173 126 -250 176 -41 27 -76 52 -78 57 -2
4 -8 7 -14 7 -5 0 -29 14 -53 30 -24 17 -50 30 -58 30 -9 0 -17 4 -19 8 -12
31 -442 238 -663 320 -154 57 -426 142 -516 161 -24 6 -89 19 -144 31 -55 12
-111 23 -125 25 -14 2 -52 8 -85 14 -33 5 -78 12 -100 16 -22 3 -53 8 -70 10
-16 3 -64 8 -105 11 -41 3 -95 8 -120 10 -71 7 -504 17 -510 11z m425 -1351
c56 -3 110 -8 120 -10 11 -2 43 -7 70 -10 50 -6 136 -19 145 -21 3 -1 23 -5
45 -9 22 -4 66 -14 98 -22 32 -9 67 -17 77 -19 66 -13 263 -77 355 -116 17 -7
32 -13 35 -13 25 -5 340 -153 350 -165 8 -9 83 -52 103 -58 9 -3 17 -9 17 -14
0 -5 5 -9 10 -9 16 0 278 -183 336 -235 6 -5 38 -32 70 -60 90 -77 244 -232
244 -244 0 -19 -50 -59 -110 -90 -30 -15 -82 -47 -115 -70 -94 -66 -199 -113
-282 -126 -75 -11 -103 -18 -108 -25 -3 -4 -26 -11 -52 -15 -27 -5 -53 -9 -59
-11 -6 -1 -29 -13 -50 -27 -21 -14 -60 -28 -85 -31 -77 -9 -105 -26 -170 -103
-30 -36 -71 -59 -118 -66 -18 -3 -45 -17 -60 -31 -16 -15 -48 -30 -81 -37 -30
-6 -89 -27 -130 -47 -66 -31 -85 -36 -160 -37 -86 -2 -140 -16 -140 -35 0 -41
-142 -11 -180 37 -25 32 -25 57 -2 97 15 25 18 47 15 111 -2 44 -5 115 -6 159
l-3 78 -38 13 c-22 8 -42 18 -45 23 -3 5 -33 26 -67 45 -33 20 -82 56 -109 80
-42 39 -69 53 -145 75 -23 7 -153 6 -177 0 -57 -17 -123 -68 -238 -184 -91
-93 -104 -113 -110 -169 -13 -103 -18 -136 -30 -171 -15 -45 -11 -76 15 -114
12 -17 15 -32 10 -46 -10 -25 -21 -30 -82 -33 -55 -3 -81 17 -97 74 -31 112
-161 176 -307 152 -18 -3 -58 -14 -90 -23 -33 -10 -64 -17 -71 -16 -6 2 -14
-2 -18 -8 -15 -25 -57 -9 -103 39 -55 57 -120 83 -154 62 -16 -10 -23 -10 -37
3 -19 17 -107 33 -230 41 -50 3 -91 11 -100 19 -9 7 -48 23 -87 34 -81 25
-193 95 -272 171 -57 55 -99 81 -131 81 -13 0 -23 9 -27 24 -3 14 -12 27 -20
30 -8 3 -14 10 -14 15 0 12 218 231 290 291 29 25 63 53 74 63 271 230 673
448 1036 562 166 52 165 52 275 75 110 24 108 23 215 40 41 6 85 13 98 15 13
2 82 7 155 11 73 3 133 7 134 8 4 4 222 -2 318 -8z m2329 -1306 c36 -50 66
-94 66 -98 0 -4 10 -18 23 -32 13 -14 26 -33 30 -43 4 -10 28 -55 55 -100 66
-112 182 -354 182 -378 0 -8 4 -19 9 -24 9 -11 44 -99 43 -112 0 -4 3 -12 7
-18 5 -5 12 -23 16 -40 10 -35 10 -36 18 -55 14 -33 62 -229 92 -370 4 -23 14
-90 20 -140 3 -25 8 -60 10 -79 23 -191 23 -589 -1 -705 -2 -11 -6 -41 -9 -66
-4 -44 -13 -104 -21 -145 -2 -11 -6 -33 -9 -50 -12 -70 -28 -125 -36 -125 -5
0 -9 8 -9 19 0 33 -25 44 -92 37 -35 -3 -76 -8 -93 -11 -16 -3 -50 -8 -75 -9
-25 -2 -45 -5 -45 -6 0 -1 -11 -3 -25 -5 -62 -6 -160 -38 -265 -85 -22 -10
-59 -20 -83 -23 -23 -2 -46 -7 -49 -11 -4 -3 -8 -37 -9 -74 -3 -81 -12 -154
-20 -179 -25 -69 -85 -178 -108 -195 -5 -3 -8 -28 -7 -55 6 -119 6 -119 -20
-126 -28 -7 -68 8 -100 39 l-26 25 -94 -26 c-52 -14 -116 -33 -144 -41 -58
-17 -256 -20 -286 -4 -10 6 -19 8 -19 4 0 -3 -11 1 -24 9 -13 9 -55 23 -92 32
-117 26 -158 43 -187 78 -30 34 -89 159 -114 242 -25 80 -114 230 -145 243 -5
2 -8 9 -8 15 0 6 -7 18 -15 27 -9 10 -17 27 -20 39 -2 11 -7 25 -10 31 -3 5
-8 58 -11 117 -2 60 -7 140 -9 178 -6 95 -7 284 -1 293 3 5 7 26 10 48 3 21
14 88 26 147 12 60 20 125 18 145 -4 44 -25 57 -108 67 -103 13 -129 31 -245
170 l-66 80 5 82 c3 46 11 93 17 105 7 13 12 25 12 28 -1 6 8 29 30 83 29 67
125 180 177 207 14 7 43 27 65 45 34 27 469 248 529 269 11 4 40 9 65 12 98
11 169 44 228 107 23 24 57 51 75 60 95 45 148 67 157 67 6 0 11 5 11 10 0 6
5 10 12 10 7 0 64 25 128 56 353 171 360 175 418 235 32 32 62 58 69 58 6 1
41 -40 77 -89z m-5140 -185 c0 -98 5 -173 16 -230 26 -126 34 -141 150 -250
58 -55 108 -163 96 -210 -9 -34 -42 -49 -106 -50 -45 0 -55 -3 -58 -18 -7 -35
8 -64 65 -127 97 -106 127 -134 194 -180 142 -96 202 -167 214 -256 3 -21 8
-50 11 -64 2 -14 -4 -54 -14 -88 -26 -83 -25 -87 142 -265 52 -56 103 -113
113 -127 19 -25 58 -105 83 -167 7 -18 19 -33 27 -33 8 0 44 19 79 42 46 30
70 54 84 83 19 40 19 44 4 91 -26 75 -63 123 -141 183 -69 52 -73 57 -83 110
-17 89 -53 196 -115 339 -31 73 -58 139 -59 145 -2 7 -9 26 -16 42 -24 58
-131 340 -135 357 -11 51 -50 113 -102 165 -38 38 -71 85 -97 137 -37 73 -40
86 -39 155 1 85 15 131 38 131 22 0 126 -54 162 -84 30 -25 45 -58 77 -166 51
-169 198 -482 248 -528 17 -15 39 -35 49 -44 11 -10 19 -29 19 -43 0 -57 30
-102 109 -163 49 -38 89 -78 106 -108 24 -41 27 -56 26 -130 l-2 -83 68 -39
c96 -56 116 -77 160 -162 36 -70 75 -129 116 -174 9 -11 17 -26 17 -33 0 -7 4
-13 9 -13 4 0 26 -28 47 -62 96 -155 254 -476 254 -516 0 -13 -26 -108 -48
-172 -6 -20 -10 -61 -12 -136 -2 -71 -11 -88 -116 -226 -39 -51 -84 -119 -99
-151 -16 -32 -44 -71 -63 -85 -18 -15 -62 -54 -97 -87 -62 -59 -79 -92 -111
-217 -1 -5 -2 -9 -4 -10 -1 -2 -3 -10 -5 -18 -1 -8 -12 -37 -22 -65 -23 -58
-32 -83 -33 -90 0 -3 -7 -23 -15 -45 -8 -22 -12 -40 -8 -40 3 0 1 -6 -5 -12
-5 -7 -11 -69 -11 -137 -2 -113 -4 -127 -27 -160 -13 -19 -24 -41 -24 -46 0
-6 -12 -23 -27 -36 -35 -31 -83 -62 -83 -52 0 12 -61 -51 -76 -80 -8 -15 -19
-27 -25 -27 -14 0 -115 69 -239 163 -220 168 -413 359 -582 577 -23 30 -45 57
-48 60 -3 3 -9 12 -15 21 -5 9 -35 52 -65 95 -30 44 -60 88 -66 99 -6 11 -28
49 -48 85 -50 88 -171 336 -185 382 -7 21 -17 40 -22 43 -5 4 -9 15 -9 26 0
10 -4 27 -10 37 -22 41 -107 321 -115 382 -2 14 -4 25 -5 25 -2 0 -4 9 -6 20
-1 11 -9 56 -17 100 -18 94 -24 143 -32 228 -3 34 -8 76 -11 94 -6 42 -6 431
1 463 3 14 7 57 10 95 2 39 6 79 9 90 2 11 7 45 11 75 4 30 9 64 11 75 2 11 7
34 10 50 11 63 63 263 90 345 15 47 28 87 29 90 3 17 40 107 47 114 4 6 8 16
8 23 0 7 12 37 26 66 14 28 27 60 29 71 3 10 11 26 18 35 8 9 20 32 27 51 14
36 20 46 84 158 20 35 36 68 36 73 0 5 4 9 9 9 5 0 11 8 15 18 6 18 27 53 37
62 3 3 14 20 24 38 34 58 40 41 39 -113z m236 -60 c3 -39 3 -86 0 -105 l-5
-35 -50 3 c-54 4 -94 35 -96 75 -1 12 -2 42 -4 67 -1 25 0 50 2 56 2 7 32 11
76 10 l72 -1 5 -70z m1440 -60 c56 -11 99 -37 125 -77 31 -46 31 -58 3 -58
-23 0 -145 28 -215 50 -127 38 -145 53 -100 85 23 16 106 16 187 0z m-1436
-133 c3 -5 7 -20 10 -34 2 -15 10 -37 17 -50 7 -12 12 -25 12 -28 0 -3 1 -9 2
-15 14 -48 13 -55 -9 -55 -38 0 -89 42 -133 110 -24 36 -43 68 -43 73 0 10
138 9 144 -1z m561 -38 c80 -24 295 -140 295 -159 0 -3 -81 -3 -180 0 l-181 5
-34 37 c-19 21 -35 49 -36 63 -2 40 2 65 13 71 9 6 79 -4 123 -17z m-400 -230
c57 -65 85 -163 48 -165 -39 -3 -85 0 -90 4 -11 11 -63 173 -59 184 9 22 75 8
101 -23z m1101 -2 c12 -6 24 -9 26 -6 3 2 18 0 34 -7 16 -6 40 -16 54 -21 14
-6 36 -16 50 -23 14 -7 52 -20 84 -29 32 -10 69 -24 81 -32 24 -15 39 -60 24
-70 -11 -6 -68 -6 -204 1 -55 3 -172 7 -260 10 -88 2 -160 5 -160 5 0 3 -158
10 -271 12 l-137 3 -37 55 c-39 58 -55 94 -46 108 8 14 737 8 762 -6z m-999
-220 c16 -2 51 -77 54 -112 3 -52 8 -50 -145 -50 l-144 0 -11 31 c-16 47 -14
56 17 62 16 4 36 20 48 39 21 33 22 33 95 32 41 0 80 -1 86 -2z m1447 -82 c19
-41 38 -87 41 -102 l7 -27 -114 5 c-62 2 -198 6 -303 8 -325 7 -585 19 -585
26 0 4 -11 18 -23 31 -13 13 -41 46 -62 74 -36 48 -37 50 -16 55 12 3 247 5
521 5 l499 0 35 -75z m-1339 -166 c23 -22 36 -49 44 -84 20 -91 16 -98 -49
-96 -30 1 -48 15 -136 103 -110 110 -109 107 -14 112 30 2 56 4 57 5 12 11 71
-13 98 -40z m965 11 c239 -4 438 -9 441 -13 3 -4 11 -23 18 -42 14 -37 22 -59
39 -102 6 -14 8 -29 5 -32 -9 -9 -883 -7 -883 2 0 4 -30 27 -66 51 -56 38
-134 116 -134 134 0 7 72 13 115 10 17 -2 226 -5 465 -8z m-870 -250 c8 -11
14 -22 13 -25 0 -3 4 -14 10 -25 5 -11 12 -41 14 -67 l3 -47 -40 3 c-47 4 -47
4 -54 36 -2 14 -11 47 -20 73 -8 27 -12 55 -9 62 7 21 65 14 83 -10z m766 -30
c408 -9 629 -15 640 -19 19 -7 46 -143 30 -149 -26 -8 -809 1 -815 10 -3 5
-21 15 -39 21 -50 17 -62 35 -62 90 0 52 5 63 24 56 7 -3 106 -7 222 -9z
m1665 -111 l61 -61 -96 0 -96 1 0 27 c0 15 5 31 10 34 6 3 10 16 10 29 0 54
37 45 111 -30z m-2361 -84 c4 -8 11 -42 15 -75 3 -32 8 -62 10 -66 3 -3 -1
-13 -8 -22 -11 -15 -17 -15 -66 2 -30 11 -59 27 -65 37 -19 33 -33 99 -25 120
6 18 15 21 69 20 43 -1 64 -6 70 -16z m955 -26 c116 -4 255 -7 310 -7 55 -1
103 -5 107 -11 3 -5 5 -19 3 -30 -2 -12 -6 -52 -9 -91 -4 -38 -11 -72 -16 -75
-5 -3 -44 -5 -87 -3 -43 1 -166 5 -273 9 -107 3 -217 7 -245 7 -45 2 -50 4
-53 27 -2 14 -12 44 -22 66 -44 96 -36 122 36 117 22 -1 134 -5 249 -9z m1543
-42 c68 0 126 -3 130 -6 12 -13 1 -91 -20 -132 -33 -66 -46 -71 -178 -70
l-115 2 -23 34 c-20 30 -50 113 -57 159 -2 13 10 17 59 21 34 3 66 2 71 -1 6
-3 66 -6 133 -7z m-1308 -217 c84 -3 156 -7 157 -9 3 -3 -7 -56 -31 -156 -2
-13 -28 -15 -157 -14 -264 3 -295 7 -320 37 -11 15 -27 34 -35 41 -8 8 -14 18
-14 23 0 4 -9 19 -20 33 -42 53 -34 57 123 54 78 -1 212 -5 297 -9z m-988 -38
c8 -17 18 -46 22 -63 7 -30 6 -32 -22 -29 -34 3 -52 12 -52 26 0 6 -16 31 -36
55 l-36 44 54 0 c51 0 55 -2 70 -33z m2374 6 c6 -2 12 -34 13 -73 2 -62 -1
-73 -23 -97 -24 -25 -31 -27 -105 -27 -44 0 -83 3 -86 6 -3 3 -8 18 -11 34 -9
56 -20 108 -30 142 l-7 23 119 -2 c66 -2 124 -4 130 -6z m-1366 -207 c25 -2
53 -4 62 -5 15 -1 13 -9 -14 -58 -17 -32 -42 -72 -54 -89 -21 -27 -28 -30 -66
-26 -24 2 -59 4 -78 5 -27 2 -37 8 -50 32 -8 17 -18 31 -22 33 -9 4 -58 99
-58 113 0 10 62 9 280 -5z m1270 -46 c0 -3 23 -6 50 -6 28 -1 53 -4 56 -7 8
-8 7 -144 -1 -157 -3 -5 -33 -10 -66 -10 l-60 0 -19 45 c-11 25 -20 49 -21 53
0 4 -5 13 -11 20 -6 6 -7 12 -3 12 4 0 2 7 -5 15 -18 22 1 40 44 40 20 0 36
-2 36 -5z m103 -244 c2 3 12 -7 21 -21 12 -18 16 -43 15 -80 -3 -65 -6 -72
-39 -76 -23 -4 -28 3 -56 74 -17 43 -34 80 -38 84 -20 21 19 34 66 22 14 -4
28 -5 31 -3z m2227 -166 c0 -41 -16 -77 -38 -89 -24 -13 -45 -14 -202 -6 -69
4 -145 7 -170 8 -137 6 56 99 235 114 39 3 71 6 72 7 1 0 24 -1 52 -2 49 -4
51 -5 51 -32z m-2938 -8 c9 -9 -7 -12 -71 -12 -75 0 -82 2 -70 16 10 12 26 15
71 12 32 -2 64 -10 70 -16z m49 -51 c8 0 37 -34 62 -75 26 -40 54 -79 62 -86
8 -7 15 -18 15 -26 0 -10 -52 -13 -265 -14 -224 0 -265 2 -265 14 0 8 4 16 8
18 4 2 36 40 71 85 38 50 72 83 85 85 19 3 188 2 227 -1z m751 -23 c16 -21 36
-76 54 -150 6 -27 5 -28 -35 -28 -43 0 -42 0 -67 65 -4 11 -8 22 -8 25 -1 3
-4 10 -7 15 -13 21 -30 85 -25 93 10 17 70 4 88 -20z m1778 -53 c140 -4 269
-8 285 -9 29 -1 30 -3 33 -51 2 -37 -4 -60 -21 -90 l-23 -40 -239 -1 c-150 -1
-245 2 -252 8 -7 6 -13 7 -13 3 0 -4 -11 4 -25 19 -21 22 -25 37 -25 86 0 60
7 93 19 86 3 -2 121 -7 261 -11z m-2405 -164 c46 -1 52 -4 75 -38 14 -20 30
-41 35 -47 32 -34 65 -79 65 -88 0 -7 -42 -8 -127 -4 -71 3 -252 9 -403 11
-151 3 -285 8 -297 10 -23 5 -22 26 1 51 6 6 25 28 41 49 17 21 36 44 43 51
12 12 84 13 567 5z m763 -29 c29 -25 64 -97 66 -135 l1 -32 -92 -2 -92 -1 -10
31 c-5 18 -12 60 -15 95 l-6 62 64 0 c46 0 68 -5 84 -18z m1762 -57 c25 -1 69
-3 98 -4 54 -1 62 -10 43 -49 -4 -9 -16 -34 -27 -55 -10 -22 -37 -52 -60 -68
l-42 -29 -204 6 c-112 3 -214 7 -228 8 -14 2 -40 4 -57 5 -31 1 -32 2 -22 28
5 14 25 47 44 73 19 26 39 58 44 73 l10 26 178 -6 c98 -2 198 -6 223 -8z
m-2274 -177 c13 -13 74 -153 74 -169 0 -9 -169 -6 -315 5 -38 3 -126 9 -195
12 -69 3 -150 8 -180 9 -30 2 -80 4 -111 4 -38 1 -62 7 -76 19 -116 101 -143
126 -143 133 0 5 210 7 466 5 374 -3 469 -7 480 -18z m622 3 c6 -1 12 -7 12
-15 0 -19 48 -65 91 -87 20 -10 68 -27 105 -38 108 -30 129 -40 116 -53 -13
-13 -159 -16 -262 -5 -36 4 -90 10 -120 13 -85 9 -90 11 -90 47 0 40 -30 127
-44 127 -6 0 -6 4 1 8 10 6 87 7 191 3z m-1588 -78 c20 -35 120 -118 163 -135
9 -4 17 -12 17 -18 0 -5 5 -10 11 -10 6 0 24 -9 40 -20 24 -18 135 -64 164
-68 35 -5 105 -27 105 -32 0 -4 12 -12 26 -19 15 -6 46 -27 69 -46 23 -19 47
-35 54 -35 6 0 11 -4 11 -8 0 -13 140 -80 190 -91 25 -5 83 -12 130 -15 47 -3
99 -10 117 -15 17 -5 33 -8 35 -6 2 1 28 -9 58 -24 49 -23 59 -33 92 -96 20
-38 41 -75 47 -82 6 -7 11 -14 11 -17 0 -16 77 -134 99 -151 29 -23 69 -63 91
-91 9 -10 41 -50 73 -88 31 -39 57 -75 57 -81 0 -6 8 -20 18 -31 29 -32 71
-129 79 -186 13 -96 16 -91 -57 -122 -150 -62 -340 -126 -450 -151 -8 -1 -33
-8 -56 -14 -61 -16 -149 -33 -239 -46 -179 -26 -231 -29 -475 -30 -251 0 -347
6 -490 30 -22 4 -50 8 -63 10 -42 5 -102 17 -162 32 -33 8 -64 16 -70 18 -60
14 -212 58 -245 72 -8 3 -22 7 -30 9 -8 2 -23 7 -35 12 -11 5 -40 17 -65 27
-25 9 -55 21 -67 26 -31 12 -29 29 2 23 36 -6 59 33 51 88 -11 70 -12 150 -4
202 7 50 14 66 73 191 19 39 37 81 41 95 9 30 8 24 18 78 4 24 23 63 42 87 18
25 48 73 65 107 17 35 45 79 61 98 44 54 45 55 53 81 14 46 76 169 86 169 5 0
9 6 9 13 0 7 23 34 50 60 28 26 50 50 50 54 0 3 14 21 30 40 17 19 44 59 61
89 17 30 32 54 34 54 2 0 13 -17 25 -37z m3208 -11 c3 -34 -29 -96 -56 -107
-7 -2 -52 -7 -100 -10 -159 -10 -217 -15 -238 -19 -12 -2 -39 -7 -60 -10 -22
-4 -47 -9 -57 -12 -15 -5 -17 -1 -11 23 4 15 16 43 26 61 10 18 21 50 24 71
l6 38 232 -1 231 -1 3 -33z m-728 -52 c0 -5 14 -24 30 -42 17 -18 29 -37 27
-43 -4 -10 -147 -17 -179 -8 -10 2 -18 12 -18 22 0 22 23 43 75 68 39 19 65
20 65 3z m-1660 -94 c140 -3 260 -5 266 -5 10 -1 66 -98 78 -137 6 -20 4 -21
-101 -18 -320 7 -415 15 -448 38 -111 75 -147 97 -184 108 -23 7 -41 15 -41
18 0 3 39 4 88 3 48 -2 202 -5 342 -7z m1390 -32 c168 -3 351 -7 407 -8 57 -1
105 -5 108 -8 11 -11 -8 -39 -36 -54 -34 -17 -45 -52 -31 -94 8 -22 8 -30 -1
-31 -28 -2 -149 2 -232 7 -49 4 -139 8 -200 9 -60 2 -159 6 -220 9 -60 4 -175
9 -255 12 -196 6 -189 5 -208 39 -9 17 -20 32 -24 33 -5 2 -8 8 -8 14 0 5 -9
21 -20 35 -42 53 -39 54 198 49 119 -3 354 -8 522 -12z m967 -15 c-6 -16 -15
-29 -19 -29 -4 0 -8 -6 -8 -14 0 -8 -4 -16 -8 -18 -4 -1 -22 -27 -40 -56 -18
-30 -37 -59 -43 -65 -5 -7 -32 -42 -60 -79 -27 -38 -54 -68 -59 -68 -5 0 -27
24 -49 54 -22 29 -56 63 -75 75 -33 21 -54 54 -47 76 2 6 4 24 5 40 2 17 4 36
5 43 2 22 71 44 160 49 47 3 102 8 121 12 19 3 55 7 81 8 l47 1 -11 -29z
m-2312 -190 c0 -29 -23 -32 -75 -11 -54 22 -56 36 -7 42 57 8 82 -2 82 -31z
m985 -14 c85 -3 211 -8 280 -10 69 -2 170 -7 225 -10 55 -3 165 -8 245 -10
159 -5 177 -7 209 -27 23 -13 39 -54 27 -66 -4 -4 -42 -7 -84 -8 -42 -1 -92
-3 -109 -3 -19 -1 -33 -6 -33 -13 -1 -7 -11 -26 -24 -42 l-23 -28 -154 5
c-188 6 -203 9 -297 57 -97 49 -149 47 -266 -11 -88 -44 -136 -31 -177 49 -8
15 -28 48 -46 74 -36 51 -33 55 37 51 19 -1 105 -4 190 -8z m1021 -196 c9 -5
-4 -26 -45 -73 -75 -85 -184 -196 -194 -196 -10 0 -15 46 -16 137 -1 66 1 74
28 102 16 16 40 32 55 34 43 7 159 5 172 -4z m-804 -23 c24 -4 45 -12 49 -17
3 -5 14 -9 25 -9 10 0 19 -4 19 -10 0 -5 7 -10 15 -10 8 0 15 -4 15 -9 0 -5 8
-12 18 -15 9 -3 49 -36 87 -72 39 -37 99 -87 135 -112 36 -26 67 -50 68 -54 2
-5 10 -8 18 -8 28 0 13 -29 -33 -67 -27 -21 -50 -41 -53 -44 -3 -3 -25 -20
-49 -37 -39 -29 -49 -31 -96 -27 -33 3 -67 0 -95 -10 -23 -8 -64 -15 -90 -15
-40 0 -57 6 -97 37 -26 20 -51 42 -56 49 -4 7 -13 19 -20 26 -46 49 -76 101
-92 163 -10 39 -29 89 -43 113 -13 24 -23 45 -21 47 11 10 168 79 194 85 34 7
42 7 102 -4z m473 -127 c0 -100 0 -99 -70 -66 -46 22 -160 123 -160 141 0 9
35 13 115 14 l115 1 0 -90z"/>
</g>
</svg>
